<svg width="13" height="13" viewBox="0 0 13 13" fill="none" xmlns="http://www.w3.org/2000/svg">
<path d="M11 5.89V4.5C11 3.675 10.325 3 9.5 3H7.5C7.115 3 6.765 3.15 6.5 3.39C6.235 3.15 5.885 3 5.5 3H3.5C2.675 3 2 3.675 2 4.5V5.89C1.695 6.165 1.5 6.56 1.5 7V9.5C1.5 9.775 1.725 10 2 10C2.275 10 2.5 9.775 2.5 9.5V9H10.5V9.5C10.5 9.775 10.725 10 11 10C11.275 10 11.5 9.775 11.5 9.5V7C11.5 6.56 11.305 6.165 11 5.89ZM7.5 4H9.5C9.775 4 10 4.225 10 4.5V5.5H7V4.5C7 4.225 7.225 4 7.5 4ZM3 4.5C3 4.225 3.225 4 3.5 4H5.5C5.775 4 6 4.225 6 4.5V5.5H3V4.5ZM2.5 8V7C2.5 6.725 2.725 6.5 3 6.5H10C10.275 6.5 10.5 6.725 10.5 7V8H2.5Z" fill="#FCB712"/>
</svg>
