<svg width="12" height="12" viewBox="0 0 12 12" fill="none" xmlns="http://www.w3.org/2000/svg">
<path d="M10.5 5.39V4C10.5 3.175 9.825 2.5 9 2.5H7C6.615 2.5 6.265 2.65 6 2.89C5.735 2.65 5.385 2.5 5 2.5H3C2.175 2.5 1.5 3.175 1.5 4V5.39C1.195 5.665 1 6.06 1 6.5V9C1 9.275 1.225 9.5 1.5 9.5C1.775 9.5 2 9.275 2 9V8.5H10V9C10 9.275 10.225 9.5 10.5 9.5C10.775 9.5 11 9.275 11 9V6.5C11 6.06 10.805 5.665 10.5 5.39ZM7 3.5H9C9.275 3.5 9.5 3.725 9.5 4V5H6.5V4C6.5 3.725 6.725 3.5 7 3.5ZM2.5 4C2.5 3.725 2.725 3.5 3 3.5H5C5.275 3.5 5.5 3.725 5.5 4V5H2.5V4ZM2 7.5V6.5C2 6.225 2.225 6 2.5 6H9.5C9.775 6 10 6.225 10 6.5V7.5H2Z" fill="#808080"/>
</svg>
