<svg width="16" height="17" viewBox="0 0 16 17" fill="none" xmlns="http://www.w3.org/2000/svg">
<path d="M8.01337 1.88281C11.8 1.88281 14.6667 4.98747 14.6667 8.53946C14.6667 12.659 11.3067 15.2161 8.00004 15.2161C6.90671 15.2161 5.69337 14.9224 4.72004 14.3482C4.38004 14.1412 4.09337 13.9876 3.72671 14.1078L2.38004 14.5084C2.04004 14.6152 1.73337 14.3482 1.83337 13.9876L2.28004 12.4921C2.35337 12.2851 2.34004 12.0648 2.23337 11.8912C1.66004 10.8362 1.33337 9.68118 1.33337 8.55949C1.33337 5.04756 4.14004 1.88281 8.01337 1.88281ZM11.06 7.71156C10.5867 7.71156 10.2067 8.09213 10.2067 8.56617C10.2067 9.03354 10.5867 9.42079 11.06 9.42079C11.5334 9.42079 11.9134 9.03354 11.9134 8.56617C11.9134 8.09213 11.5334 7.71156 11.06 7.71156ZM7.98671 7.71156C7.52004 7.70488 7.13337 8.09213 7.13337 8.55949C7.13337 9.03354 7.51337 9.41411 7.98671 9.42079C8.46004 9.42079 8.84004 9.03354 8.84004 8.56617C8.84004 8.09213 8.46004 7.71156 7.98671 7.71156ZM4.91337 7.71156C4.44004 7.71156 4.06004 8.09213 4.06004 8.56617C4.06004 9.03354 4.44671 9.42079 4.91337 9.42079C5.38671 9.41411 5.76671 9.03354 5.76671 8.56617C5.76671 8.09213 5.38671 7.71156 4.91337 7.71156Z" fill="#0A0434"/>
</svg>
