<svg width="8" height="8" viewBox="0 0 8 8" fill="none" xmlns="http://www.w3.org/2000/svg">
<path d="M3.52491 5.52086H4.08026V4.96551H3.52491V5.52086ZM3.80259 1.07812C3.43794 1.07812 3.07687 1.14995 2.73999 1.28949C2.4031 1.42903 2.097 1.63356 1.83916 1.8914C1.31842 2.41214 1.02588 3.1184 1.02588 3.85483C1.02588 4.59126 1.31842 5.29753 1.83916 5.81826C2.097 6.0761 2.4031 6.28063 2.73999 6.42017C3.07687 6.55972 3.43794 6.63154 3.80259 6.63154C4.53901 6.63154 5.24528 6.33899 5.76601 5.81826C6.28675 5.29753 6.57929 4.59126 6.57929 3.85483C6.57929 3.49019 6.50747 3.12912 6.36793 2.79223C6.22839 2.45535 6.02385 2.14924 5.76601 1.8914C5.50817 1.63356 5.20207 1.42903 4.86519 1.28949C4.5283 1.14995 4.16723 1.07813 3.80259 1.07812ZM3.80259 6.0762C2.57806 6.0762 1.58122 5.07936 1.58122 3.85483C1.58122 2.6303 2.57806 1.63347 3.80259 1.63347C5.02711 1.63347 6.02395 2.6303 6.02395 3.85483C6.02395 5.07936 5.02711 6.0762 3.80259 6.0762ZM3.80259 2.18881C3.50801 2.18881 3.22551 2.30583 3.01721 2.51412C2.80892 2.72241 2.6919 3.00492 2.6919 3.29949H3.24724C3.24724 3.1522 3.30575 3.01095 3.4099 2.9068C3.51405 2.80266 3.6553 2.74415 3.80259 2.74415C3.94987 2.74415 4.09112 2.80266 4.19527 2.9068C4.29942 3.01095 4.35793 3.1522 4.35793 3.29949C4.35793 3.85483 3.52491 3.78541 3.52491 4.68784H4.08026C4.08026 4.06308 4.91327 3.99367 4.91327 3.29949C4.91327 3.00492 4.79625 2.72241 4.58796 2.51412C4.37966 2.30583 4.09716 2.18881 3.80259 2.18881Z" fill="black"/>
</svg>
