<svg width="16" height="16" viewBox="0 0 16 16" fill="none" xmlns="http://www.w3.org/2000/svg">
<path d="M10.3333 13.3333H3.66659V4.66666C3.66659 4.29999 3.36659 3.99999 2.99992 3.99999C2.63325 3.99999 2.33325 4.29999 2.33325 4.66666V13.3333C2.33325 14.0667 2.93325 14.6667 3.66659 14.6667H10.3333C10.6999 14.6667 10.9999 14.3667 10.9999 14C10.9999 13.6333 10.6999 13.3333 10.3333 13.3333ZM13.6666 10.6667V2.66666C13.6666 1.93333 13.0666 1.33333 12.3333 1.33333H6.33325C5.59992 1.33333 4.99992 1.93333 4.99992 2.66666V10.6667C4.99992 11.4 5.59992 12 6.33325 12H12.3333C13.0666 12 13.6666 11.4 13.6666 10.6667ZM12.3333 10.6667H6.33325V2.66666H12.3333V10.6667Z" fill="#0768FD"/>
</svg>
