<svg width="145" height="130" viewBox="0 0 145 130" fill="none" xmlns="http://www.w3.org/2000/svg">
<rect x="12.1017" y="2.97668" width="124" height="124" rx="62" fill="url(#paint0_linear_104_1883)"/>
<rect width="71.7567" height="114.447" rx="12.7164" transform="matrix(1 0 0.0579125 0.998322 32.8046 9.39734)" fill="white"/>
<path d="M61.4742 33.8806H85.0903C88.6019 33.8806 91.6134 36.7225 91.8167 40.2281C92.0201 43.7338 89.3383 46.5756 85.8268 46.5756H62.2106L61.4742 33.8806Z" fill="#D7DDEB"/>
<rect width="46.3239" height="13.7986" rx="6.89931" transform="matrix(1 0 0.0579125 0.998322 50.0582 87.297)" fill="#FCB712"/>
<path d="M62.7893 56.5503H86.4054C89.9169 56.5503 92.9284 59.3922 93.1318 62.8978C93.3352 66.4034 90.6534 69.2453 87.1418 69.2453H63.5257L62.7893 56.5503Z" fill="#D7DDEB"/>
<path fill-rule="evenodd" clip-rule="evenodd" d="M46.6204 4.8634C36.3366 4.8634 28.4828 13.186 29.0784 23.4525L34.1808 111.411C34.7764 121.677 43.5958 130 53.8796 130H97.4785C107.762 130 115.616 121.677 115.021 111.411L109.918 23.4525C109.323 13.186 100.503 4.8634 90.2194 4.8634H46.6204ZM37.2532 23.4525C36.9191 17.6933 41.3249 13.0245 47.0938 13.0245H52.3811C53.3068 13.0245 54.1247 13.7193 54.2802 14.6378L54.6339 16.7265C54.9763 18.7488 56.7773 20.2788 58.8155 20.2788H78.9045C80.9427 20.2788 82.5662 18.7488 82.674 16.7265L82.7853 14.6378C82.8342 13.7193 83.5715 13.0245 84.4972 13.0245H90.6928C96.4617 13.0245 101.409 17.6933 101.743 23.4525L106.846 111.411C107.18 117.17 102.774 121.839 97.0051 121.839H53.4061C47.6372 121.839 42.6897 117.17 42.3556 111.411L37.2532 23.4525Z" fill="url(#paint1_linear_104_1883)"/>
<path fill-rule="evenodd" clip-rule="evenodd" d="M46.6204 4.8634C36.3366 4.8634 28.4828 13.186 29.0784 23.4525L34.1808 111.411C34.7764 121.677 43.5958 130 53.8796 130H97.4785C107.762 130 115.616 121.677 115.021 111.411L109.918 23.4525C109.323 13.186 100.503 4.8634 90.2194 4.8634H46.6204ZM37.2532 23.4525C36.9191 17.6933 41.3249 13.0245 47.0938 13.0245H52.3811C53.3068 13.0245 54.1247 13.7193 54.2802 14.6378L54.6339 16.7265C54.9763 18.7488 56.7773 20.2788 58.8155 20.2788H78.9045C80.9427 20.2788 82.5662 18.7488 82.674 16.7265L82.7853 14.6378C82.8342 13.7193 83.5715 13.0245 84.4972 13.0245H90.6928C96.4617 13.0245 101.409 17.6933 101.743 23.4525L106.846 111.411C107.18 117.17 102.774 121.839 97.0051 121.839H53.4061C47.6372 121.839 42.6897 117.17 42.3556 111.411L37.2532 23.4525Z" fill="black" fill-opacity="0.3"/>
<path d="M54.9582 31.1603C49.9443 31.1603 46.1108 35.2227 46.4011 40.2282C46.6915 45.2336 50.9964 49.296 56.0103 49.296C61.0241 49.296 64.8577 45.2336 64.5674 40.2282C64.277 35.2227 59.9721 31.1603 54.9582 31.1603ZM55.116 33.8806C56.6238 33.8806 57.9114 35.0957 57.9988 36.601C58.0861 38.1063 56.9394 39.3214 55.4316 39.3214C53.9238 39.3214 52.6362 38.1063 52.5489 36.601C52.4616 35.0957 53.6082 33.8806 55.116 33.8806ZM55.863 46.757C53.5922 46.757 51.5175 45.5963 50.2437 43.8372C50.1663 42.0327 53.715 41.0443 55.5316 41.0443C57.3391 41.0443 61.0115 42.0327 61.1435 43.8372C60.0738 45.5963 58.1338 46.757 55.863 46.757Z" fill="#FCB712"/>
<rect width="18.1662" height="18.1662" rx="9.08312" transform="matrix(1 0 0.0579125 0.998322 47.2085 53.83)" fill="#FCB712"/>
<path d="M59.7431 61.1346H59.2384L59.18 60.127C59.0993 58.7366 57.9035 57.6082 56.5108 57.6082C55.118 57.6082 54.0532 58.7366 54.1338 60.127L54.1923 61.1346H53.6876C53.1326 61.1346 52.7047 61.5879 52.7369 62.1421L53.0291 67.1798C53.0612 67.7339 53.5417 68.1873 54.0968 68.1873H60.1522C60.7073 68.1873 61.1351 67.7339 61.103 67.1798L60.8107 62.1421C60.7786 61.5879 60.2981 61.1346 59.7431 61.1346ZM56.9784 65.6685C56.4233 65.6685 55.9428 65.2151 55.9107 64.6609C55.8785 64.1068 56.3064 63.6534 56.8615 63.6534C57.4166 63.6534 57.897 64.1068 57.9292 64.6609C57.9613 65.2151 57.5334 65.6685 56.9784 65.6685ZM55.2015 61.1346L55.1431 60.127C55.0945 59.2907 55.7316 58.6157 56.5692 58.6157C57.4069 58.6157 58.1222 59.2907 58.1708 60.127L58.2292 61.1346H55.2015Z" fill="white"/>
<rect width="71.7567" height="114.447" rx="12.7164" transform="matrix(1 0 0.0579125 0.998322 36.4374 5.76404)" fill="white"/>
<path d="M65.107 30.2473H88.7231C92.2347 30.2473 95.2462 33.0892 95.4495 36.5948C95.6529 40.1005 92.9711 42.9423 89.4596 42.9423H65.8435L65.107 30.2473Z" fill="#D7DDEB"/>
<rect width="46.3239" height="13.7986" rx="6.89931" transform="matrix(1 0 0.0579125 0.998322 53.691 83.6637)" fill="#FCB712"/>
<path d="M66.4221 52.917H90.0382C93.5497 52.917 96.5612 55.7589 96.7646 59.2645C96.968 62.7701 94.2862 65.612 90.7746 65.612H67.1585L66.4221 52.917Z" fill="#D7DDEB"/>
<path fill-rule="evenodd" clip-rule="evenodd" d="M50.2532 1.2301C39.9695 1.2301 32.1156 9.55273 32.7112 19.8192L37.8136 107.778C38.4092 118.044 47.2286 126.367 57.5124 126.367H101.111C111.395 126.367 119.249 118.044 118.653 107.778L113.551 19.8192C112.955 9.55275 104.136 1.2301 93.8522 1.2301H50.2532ZM40.886 19.8192C40.5519 14.06 44.9577 9.39119 50.7266 9.39119H56.0139C56.9396 9.39119 57.7575 10.086 57.913 11.0045L58.2667 13.0932C58.6091 15.1155 60.4101 16.6455 62.4483 16.6455H82.5373C84.5755 16.6455 86.199 15.1155 86.3068 13.0932L86.4181 11.0045C86.467 10.086 87.2043 9.39119 88.13 9.39119H94.3256C100.095 9.39119 105.042 14.06 105.376 19.8192L110.479 107.778C110.813 113.537 106.407 118.206 100.638 118.206H57.0389C51.27 118.206 46.3225 113.537 45.9884 107.778L40.886 19.8192Z" fill="url(#paint2_linear_104_1883)"/>
<path d="M58.591 27.527C53.5771 27.527 49.7436 31.5894 50.0339 36.5949C50.3243 41.6003 54.6292 45.6627 59.6431 45.6627C64.657 45.6627 68.4905 41.6003 68.2002 36.5949C67.9098 31.5894 63.6049 27.527 58.591 27.527ZM58.7488 30.2473C60.2566 30.2473 61.5443 31.4624 61.6316 32.9677C61.7189 34.473 60.5722 35.6881 59.0644 35.6881C57.5566 35.6881 56.269 34.473 56.1817 32.9677C56.0944 31.4624 57.241 30.2473 58.7488 30.2473ZM59.4958 43.1237C57.225 43.1237 55.1503 41.963 53.8765 40.2039C53.7991 38.3994 57.3478 37.411 59.1644 37.411C60.9719 37.411 64.6444 38.3994 64.7763 40.2039C63.7066 41.963 61.7666 43.1237 59.4958 43.1237Z" fill="#FCB712"/>
<rect width="18.1662" height="18.1662" rx="9.08312" transform="matrix(1 0 0.0579125 0.998322 50.8413 50.1967)" fill="#FCB712"/>
<path d="M63.3759 57.5012H62.8713L62.8128 56.4937C62.7322 55.1033 61.5363 53.9749 60.1436 53.9749C58.7509 53.9749 57.686 55.1033 57.7666 56.4937L57.8251 57.5012H57.3205C56.7654 57.5012 56.3375 57.9546 56.3697 58.5088L56.6619 63.5465C56.6941 64.1006 57.1745 64.554 57.7296 64.554H63.785C64.3401 64.554 64.7679 64.1006 64.7358 63.5465L64.4436 58.5088C64.4114 57.9546 63.931 57.5012 63.3759 57.5012ZM60.6112 62.0352C60.0561 62.0352 59.5756 61.5818 59.5435 61.0276C59.5114 60.4735 59.9392 60.0201 60.4943 60.0201C61.0494 60.0201 61.5298 60.4735 61.562 61.0276C61.5941 61.5818 61.1663 62.0352 60.6112 62.0352ZM58.8343 57.5012L58.7759 56.4937C58.7274 55.6574 59.3644 54.9824 60.202 54.9824C61.0397 54.9824 61.7551 55.6574 61.8036 56.4937L61.862 57.5012H58.8343Z" fill="white"/>
<path d="M133.766 24.9645C134.086 23.6785 135.914 23.6785 136.234 24.9645L137.605 30.4682C137.719 30.9248 138.075 31.2813 138.532 31.395L144.036 32.7658C145.321 33.0861 145.321 34.9139 144.036 35.2342L138.532 36.605C138.075 36.7187 137.719 37.0752 137.605 37.5318L136.234 43.0355C135.914 44.3215 134.086 44.3215 133.766 43.0355L132.395 37.5318C132.281 37.0752 131.925 36.7187 131.468 36.605L125.964 35.2342C124.679 34.9139 124.679 33.0861 125.964 32.7658L131.468 31.395C131.925 31.2813 132.281 30.9248 132.395 30.4682L133.766 24.9645Z" fill="url(#paint3_linear_104_1883)"/>
<path d="M12.1361 84.6751C12.3603 83.775 13.6397 83.775 13.8639 84.6751L14.8235 88.5278C14.9031 88.8474 15.1526 89.0969 15.4722 89.1765L19.3249 90.1361C20.225 90.3603 20.225 91.6397 19.3249 91.8639L15.4722 92.8235C15.1526 92.9031 14.9031 93.1526 14.8235 93.4722L13.8639 97.3249C13.6397 98.225 12.3603 98.225 12.1361 97.3249L11.1765 93.4722C11.0969 93.1526 10.8474 92.9031 10.5278 92.8235L6.67514 91.8639C5.77495 91.6397 5.77495 90.3603 6.67514 90.1361L10.5278 89.1765C10.8474 89.0969 11.0969 88.8474 11.1765 88.5278L12.1361 84.6751Z" fill="#FCB712"/>
<path d="M10.519 1.15738C10.9034 -0.385792 13.0966 -0.385794 13.481 1.15738L15.126 7.76188C15.2624 8.30976 15.6902 8.73755 16.2381 8.87401L22.8426 10.519C24.3858 10.9034 24.3858 13.0966 22.8426 13.481L16.2381 15.126C15.6902 15.2624 15.2624 15.6902 15.126 16.2381L13.481 22.8426C13.0966 24.3858 10.9034 24.3858 10.519 22.8426L8.87401 16.2381C8.73755 15.6902 8.30977 15.2624 7.76188 15.126L1.15738 13.481C-0.385792 13.0966 -0.385794 10.9034 1.15738 10.519L7.76188 8.87401C8.30976 8.73755 8.73755 8.30977 8.87401 7.76188L10.519 1.15738Z" fill="url(#paint4_linear_104_1883)"/>
<defs>
<linearGradient id="paint0_linear_104_1883" x1="74.1017" y1="2.97668" x2="74.1017" y2="126.977" gradientUnits="userSpaceOnUse">
<stop stop-color="#F4F4F4"/>
<stop offset="1" stop-color="#E4E9F3" stop-opacity="0"/>
</linearGradient>
<linearGradient id="paint1_linear_104_1883" x1="68.4199" y1="4.8634" x2="68.4199" y2="130" gradientUnits="userSpaceOnUse">
<stop stop-color="#002270"/>
<stop offset="1" stop-color="#0768FD"/>
</linearGradient>
<linearGradient id="paint2_linear_104_1883" x1="72.0527" y1="1.2301" x2="72.0527" y2="126.367" gradientUnits="userSpaceOnUse">
<stop stop-color="#002270"/>
<stop offset="1" stop-color="#0768FD"/>
</linearGradient>
<linearGradient id="paint3_linear_104_1883" x1="135" y1="24" x2="135" y2="44" gradientUnits="userSpaceOnUse">
<stop stop-color="#002270"/>
<stop offset="1" stop-color="#0768FD"/>
</linearGradient>
<linearGradient id="paint4_linear_104_1883" x1="12" y1="0" x2="12" y2="24" gradientUnits="userSpaceOnUse">
<stop stop-color="#002270"/>
<stop offset="1" stop-color="#0768FD"/>
</linearGradient>
</defs>
</svg>
