<svg width="25" height="24" viewBox="0 0 25 24" fill="none" xmlns="http://www.w3.org/2000/svg">
<path d="M3.69373 5.25763C3.69373 4.15763 4.59373 3.25763 5.69373 3.25763H12.6937C12.0637 4.09763 11.6937 5.12763 11.6937 6.25763C11.6937 9.01763 13.9337 11.2576 16.6937 11.2576C17.0337 11.2576 17.3737 11.2276 17.6937 11.1576V19.7376C17.6937 20.4576 16.9637 20.9376 16.3037 20.6576L10.6937 18.2576L5.08373 20.6576C4.42373 20.9476 3.69373 20.4576 3.69373 19.7376V5.25763ZM20.7637 3.59763C21.1537 3.98763 21.1537 4.61763 20.7637 5.00763L17.2237 8.54763C16.8337 8.93763 16.2037 8.93763 15.8137 8.54763L14.4037 7.13763C14.0137 6.74763 14.0137 6.11763 14.4037 5.72763C14.7937 5.33763 15.4237 5.33763 15.8137 5.72763L16.5237 6.43763L19.3537 3.60763C19.7437 3.20763 20.3737 3.20763 20.7637 3.59763Z" fill="#BFBFBF"/>
</svg>
