<svg width="16" height="17" viewBox="0 0 16 17" fill="none" xmlns="http://www.w3.org/2000/svg">
<path d="M5.51987 2.16697C5.93987 2.17975 6.34654 2.25308 6.74054 2.38708H6.77987C6.80654 2.39975 6.82654 2.41375 6.83987 2.42641C6.9872 2.47375 7.12654 2.52708 7.25987 2.60041L7.5132 2.71375C7.6132 2.76708 7.7332 2.86641 7.79987 2.90708C7.86654 2.94641 7.93987 2.98708 7.99987 3.03308C8.74054 2.46708 9.63987 2.16041 10.5665 2.16697C10.9872 2.16697 11.4072 2.22641 11.8065 2.36041C14.2672 3.16041 15.1539 5.86041 14.4132 8.22041C13.9932 9.42641 13.3065 10.5271 12.4072 11.4264C11.1199 12.6731 9.7072 13.7797 8.18654 14.7331L8.01987 14.8337L7.84654 14.7264C6.32054 13.7797 4.89987 12.6731 3.60054 11.4197C2.7072 10.5204 2.01987 9.42641 1.5932 8.22041C0.839869 5.86041 1.72654 3.16041 4.21387 2.34641C4.4072 2.27975 4.60654 2.23308 4.80654 2.20708H4.88654C5.07387 2.17975 5.25987 2.16697 5.44654 2.16697H5.51987ZM11.4599 4.27375C11.1865 4.17975 10.8865 4.32708 10.7865 4.60708C10.6932 4.88708 10.8399 5.19375 11.1199 5.29308C11.5472 5.45308 11.8332 5.87375 11.8332 6.33975V6.36041C11.8205 6.51308 11.8665 6.66041 11.9599 6.77375C12.0532 6.88708 12.1932 6.95308 12.3399 6.96708C12.6132 6.95975 12.8465 6.74041 12.8665 6.45975V6.38041C12.8865 5.44641 12.3205 4.60041 11.4599 4.27375Z" fill="#FC1282"/>
</svg>
