<svg width="20" height="20" viewBox="0 0 20 20" fill="none" xmlns="http://www.w3.org/2000/svg">
<path d="M15 7.08333H14.1667V5.41667C14.1667 3.11667 12.3 1.25 10 1.25C7.70001 1.25 5.83334 3.11667 5.83334 5.41667V7.08333H5.00001C4.08334 7.08333 3.33334 7.83333 3.33334 8.75V17.0833C3.33334 18 4.08334 18.75 5.00001 18.75H15C15.9167 18.75 16.6667 18 16.6667 17.0833V8.75C16.6667 7.83333 15.9167 7.08333 15 7.08333ZM10 14.5833C9.08334 14.5833 8.33334 13.8333 8.33334 12.9167C8.33334 12 9.08334 11.25 10 11.25C10.9167 11.25 11.6667 12 11.6667 12.9167C11.6667 13.8333 10.9167 14.5833 10 14.5833ZM7.50001 7.08333V5.41667C7.50001 4.03333 8.61668 2.91667 10 2.91667C11.3833 2.91667 12.5 4.03333 12.5 5.41667V7.08333H7.50001Z" fill="#002270"/>
</svg>
