<svg width="16" height="17" viewBox="0 0 16 17" fill="none" xmlns="http://www.w3.org/2000/svg">
<path d="M7.66186 1.88281C9.3169 1.88281 10.6667 3.20948 10.6667 4.84281V8.03615H6.59694C6.30527 8.03615 6.07465 8.26281 6.07465 8.54948C6.07465 8.82948 6.30527 9.06281 6.59694 9.06281H10.6667V12.2495C10.6667 13.8828 9.3169 15.2161 7.6483 15.2161H4.345C2.68318 15.2161 1.33337 13.8895 1.33337 12.2561V4.84948C1.33337 3.20948 2.68996 1.88281 4.35179 1.88281H7.66186ZM12.3602 6.24961C12.5602 6.04295 12.8868 6.04295 13.0868 6.24295L15.0335 8.18295C15.1335 8.28295 15.1868 8.40961 15.1868 8.54961C15.1868 8.68295 15.1335 8.81628 15.0335 8.90961L13.0868 10.8496C12.9868 10.9496 12.8535 11.0029 12.7268 11.0029C12.5935 11.0029 12.4602 10.9496 12.3602 10.8496C12.1602 10.6496 12.1602 10.3229 12.3602 10.1229L13.4268 9.06295H10.6668V8.03628H13.4268L12.3602 6.97628C12.1602 6.77628 12.1602 6.44961 12.3602 6.24961Z" fill="#FF4E4E"/>
</svg>
