<svg width="8" height="8" viewBox="0 0 8 8" fill="none" xmlns="http://www.w3.org/2000/svg">
<g clip-path="url(#clip0_201_19393)">
<path d="M2.79196 4.97886L4.04148 3.31284L5.01333 4.56235L5.7075 3.72934L6.67935 4.97886H2.79196ZM6.95702 1.92448H4.73566L4.18031 1.36914H2.51429C2.367 1.36914 2.22575 1.42765 2.1216 1.5318C2.01746 1.63594 1.95895 1.7772 1.95895 1.92448V5.25653C1.95895 5.40382 2.01746 5.54507 2.1216 5.64922C2.22575 5.75336 2.367 5.81187 2.51429 5.81187H6.95702C7.10431 5.81187 7.24556 5.75336 7.34971 5.64922C7.45385 5.54507 7.51236 5.40382 7.51236 5.25653V2.47982C7.51236 2.33254 7.45385 2.19128 7.34971 2.08714C7.24556 1.98299 7.10431 1.92448 6.95702 1.92448ZM1.40361 2.47982H0.848267V3.86818V6.36721C0.848267 6.5145 0.906776 6.65575 1.01092 6.7599C1.11507 6.86404 1.25632 6.92255 1.40361 6.92255H6.40168V6.36721H1.40361V2.47982Z" fill="black"/>
</g>
<defs>
<clipPath id="clip0_201_19393">
<rect width="6.6641" height="6.6641" fill="white" transform="translate(0.848267 0.813477)"/>
</clipPath>
</defs>
</svg>
