<svg width="24" height="24" viewBox="0 0 24 24" fill="none" xmlns="http://www.w3.org/2000/svg">
<path fill-rule="evenodd" clip-rule="evenodd" d="M11.6749 2.01538C11.5378 1.99103 11.4013 1.99594 11.2724 2.02609C6.08881 2.39923 2 6.72178 2 12C2 17.5228 6.47715 22 12 22C16.3556 22 20.0584 19.2159 21.4307 15.3332C21.5435 15.0142 21.4873 14.6598 21.2813 14.3913C21.0753 14.1228 20.7475 13.9767 20.4102 14.003C20.3302 14.0092 20.3055 14.0083 20.2832 14.0075L20.2819 14.0075L20.2544 14.0063L20.2544 14.0063C20.2053 14.004 20.1165 14 20 14C15.5817 14 12 10.4183 12 5.99999C12 5.04769 12.1211 4.24795 12.4037 3.44213C12.4655 3.31205 12.5 3.16669 12.5 3.01365V2.99997C12.5 2.51515 12.1522 2.10017 11.6749 2.01538Z" fill="#383838"/>
</svg>
