<svg width="16" height="17" viewBox="0 0 16 17" fill="none" xmlns="http://www.w3.org/2000/svg">
<path d="M6.64216 13.3682C6.97544 13.2977 9.00623 13.2977 9.3395 13.3682C9.62441 13.434 9.9325 13.5878 9.9325 13.9235C9.91594 14.2431 9.72843 14.5264 9.46937 14.7064C9.13344 14.9683 8.73921 15.1341 8.32709 15.1939C8.09916 15.2234 7.87521 15.2241 7.65524 15.1939C7.24245 15.1341 6.84822 14.9683 6.51296 14.7057C6.25323 14.5264 6.06572 14.2431 6.04916 13.9235C6.04916 13.5878 6.35725 13.434 6.64216 13.3682ZM8.03019 1.88293C9.41695 1.88293 10.8335 2.54095 11.675 3.63271C12.221 4.33571 12.4714 5.03804 12.4714 6.1298V6.41382C12.4714 7.25111 12.6927 7.74462 13.1797 8.31333C13.5488 8.73231 13.6667 9.27013 13.6667 9.85361C13.6667 10.4364 13.4752 10.9897 13.0916 11.4389C12.5894 11.9774 11.8811 12.3212 11.1582 12.3809C10.1107 12.4702 9.06248 12.5454 8.00037 12.5454C6.9376 12.5454 5.89007 12.5004 4.84254 12.3809C4.11901 12.3212 3.41072 11.9774 2.90915 11.4389C2.52552 10.9897 2.33337 10.4364 2.33337 9.85361C2.33337 9.27013 2.45197 8.73231 2.82037 8.31333C3.3226 7.74462 3.52932 7.25111 3.52932 6.41382V6.1298C3.52932 5.00849 3.80893 4.27528 4.3847 3.55751C5.24075 2.51073 6.61294 1.88293 7.97056 1.88293H8.03019Z" fill="#0A0434"/>
</svg>
