<svg width="145" height="125" viewBox="0 0 145 125" fill="none" xmlns="http://www.w3.org/2000/svg">
<rect x="8" y="0.0993652" width="124" height="124" rx="62" fill="url(#paint0_linear_108_2805)"/>
<circle cx="11" cy="95.793" r="8" fill="url(#paint1_linear_108_2805)"/>
<rect x="17.5" y="19.2808" width="111.5" height="89.6373" rx="13.1176" fill="#074AB2"/>
<circle cx="11" cy="10.5994" r="10.5" fill="#FCB712"/>
<circle cx="129.5" cy="8.09937" r="6" fill="url(#paint2_linear_108_2805)"/>
<g clip-path="url(#clip0_108_2805)">
<rect x="12" y="14.0994" width="111.5" height="21.8627" fill="url(#paint3_linear_108_2805)"/>
<circle cx="23.8669" cy="25.0308" r="3.12182" fill="white"/>
<circle cx="34.3401" cy="25.0308" r="3.12182" fill="white"/>
<rect x="12" y="35.9622" width="111.5" height="67.5012" fill="white"/>
<rect x="22.2482" y="74.7177" width="19.8153" height="21.418" rx="5.82803" fill="#D7DDEB"/>
<rect x="45.9776" y="74.7177" width="19.8153" height="21.418" rx="5.82803" fill="#D7DDEB"/>
<rect x="69.7071" y="74.7177" width="19.8153" height="21.418" rx="5.82803" fill="#D7DDEB"/>
<rect x="74.6245" y="88.8506" width="9.98051" height="1.31131" rx="0.655654" fill="white"/>
<rect x="93.4365" y="74.7177" width="19.8153" height="21.418" rx="5.82803" fill="#D7DDEB"/>
<rect x="98.3539" y="88.8506" width="9.98051" height="1.31131" rx="0.655654" fill="white"/>
<path d="M30.7934 90.793L30.9705 86.8615L27.6538 88.995L26.6383 87.2248L30.1599 85.4267L26.6383 83.6286L27.6538 81.8585L30.9705 83.992L30.7934 80.0604H32.8151L32.6381 83.992L35.9548 81.8585L36.9703 83.6286L33.4486 85.4267L36.9703 87.2248L35.9548 88.995L32.6381 86.8615L32.8151 90.793H30.7934Z" fill="#172945"/>
<path d="M54.6986 90.793L54.8756 86.8615L51.5589 88.995L50.5434 87.2248L54.0651 85.4267L50.5434 83.6286L51.5589 81.8585L54.8756 83.992L54.6986 80.0604H56.7203L56.5433 83.992L59.8599 81.8585L60.8754 83.6286L57.3538 85.4267L60.8754 87.2248L59.8599 88.995L56.5433 86.8615L56.7203 90.793H54.6986Z" fill="#172945"/>
<path d="M75.0427 49.8314H73.8272V47.565C73.8272 44.4373 71.1046 41.8989 67.75 41.8989C64.3953 41.8989 61.6727 44.4373 61.6727 47.565V49.8314H60.4572C59.1202 49.8314 58.0263 50.8513 58.0263 52.0978V63.4299C58.0263 64.6764 59.1202 65.6963 60.4572 65.6963H75.0427C76.3797 65.6963 77.4736 64.6764 77.4736 63.4299V52.0978C77.4736 50.8513 76.3797 49.8314 75.0427 49.8314ZM67.75 60.0302C66.4129 60.0302 65.319 59.0103 65.319 57.7638C65.319 56.5173 66.4129 55.4974 67.75 55.4974C69.087 55.4974 70.1809 56.5173 70.1809 57.7638C70.1809 59.0103 69.087 60.0302 67.75 60.0302ZM64.1036 49.8314V47.565C64.1036 45.6838 65.7323 44.1653 67.75 44.1653C69.7676 44.1653 71.3963 45.6838 71.3963 47.565V49.8314H64.1036Z" fill="url(#paint4_linear_108_2805)"/>
</g>
<rect x="112.562" y="30.49" width="21.5469" height="20.2344" fill="white"/>
<path d="M122.082 22.3153L109.832 27.7578C108.573 28.3178 107.75 29.5778 107.75 30.9603V39.1853C107.75 48.8978 114.47 57.9803 123.5 60.1853C132.53 57.9803 139.25 48.8978 139.25 39.1853V30.9603C139.25 29.5778 138.427 28.3178 137.167 27.7578L124.918 22.3153C124.025 21.9128 122.975 21.9128 122.082 22.3153ZM118.757 48.4428L114.225 43.9103C113.542 43.2278 113.542 42.1253 114.225 41.4428C114.907 40.7603 116.01 40.7603 116.692 41.4428L120 44.7328L130.29 34.4428C130.972 33.7603 132.075 33.7603 132.758 34.4428C133.44 35.1253 133.44 36.2278 132.758 36.9103L121.225 48.4428C120.56 49.1253 119.44 49.1253 118.757 48.4428Z" fill="url(#paint5_linear_108_2805)"/>
<path opacity="0.6" d="M122.384 24.0767L122.384 24.0767L122.386 24.0756C123.086 23.76 123.914 23.76 124.614 24.0756L124.614 24.0756L124.616 24.0767L136.015 29.1412C137.008 29.5823 137.656 30.5762 137.656 31.6644V39.3182C137.656 46.6526 133.431 53.5928 127.306 56.8662C124.938 58.1318 122.062 58.1318 119.694 56.8662C113.569 53.5928 109.344 46.6526 109.344 39.3182V31.6644C109.344 30.5762 109.992 29.5824 110.985 29.1413C110.985 29.1413 110.985 29.1412 110.985 29.1412L122.384 24.0767Z" stroke="url(#paint6_linear_108_2805)"/>
<defs>
<linearGradient id="paint0_linear_108_2805" x1="70" y1="0.0993652" x2="70" y2="124.099" gradientUnits="userSpaceOnUse">
<stop stop-color="#E4E9F3"/>
<stop offset="1" stop-color="#E4E9F3" stop-opacity="0"/>
</linearGradient>
<linearGradient id="paint1_linear_108_2805" x1="11" y1="87.793" x2="11" y2="103.793" gradientUnits="userSpaceOnUse">
<stop stop-color="#002270"/>
<stop offset="1" stop-color="#0768FD"/>
</linearGradient>
<linearGradient id="paint2_linear_108_2805" x1="129.5" y1="2.09937" x2="129.5" y2="14.0994" gradientUnits="userSpaceOnUse">
<stop stop-color="#002270"/>
<stop offset="1" stop-color="#0768FD"/>
</linearGradient>
<linearGradient id="paint3_linear_108_2805" x1="12" y1="35.9621" x2="123.5" y2="35.9621" gradientUnits="userSpaceOnUse">
<stop stop-color="#002270"/>
<stop offset="1" stop-color="#0768FD"/>
</linearGradient>
<linearGradient id="paint4_linear_108_2805" x1="67.75" y1="41.8989" x2="67.75" y2="65.6963" gradientUnits="userSpaceOnUse">
<stop stop-color="#FFC46B"/>
<stop offset="1" stop-color="#FCB712"/>
</linearGradient>
<linearGradient id="paint5_linear_108_2805" x1="123.5" y1="22.0134" x2="123.5" y2="60.1853" gradientUnits="userSpaceOnUse">
<stop stop-color="#FFC46B"/>
<stop offset="1" stop-color="#FCB712"/>
</linearGradient>
<linearGradient id="paint6_linear_108_2805" x1="123.5" y1="23.3389" x2="123.5" y2="58.8599" gradientUnits="userSpaceOnUse">
<stop stop-color="white"/>
<stop offset="1" stop-color="white" stop-opacity="0"/>
</linearGradient>
<clipPath id="clip0_108_2805">
<rect x="12" y="14.0994" width="111.5" height="89.6373" rx="13.1176" fill="white"/>
</clipPath>
</defs>
</svg>
