<svg width="136" height="134" viewBox="0 0 136 134" fill="none" xmlns="http://www.w3.org/2000/svg">
<rect x="11.1017" y="2.07605" width="124" height="124" rx="62" fill="url(#paint0_linear_107_2244)"/>
<rect width="88.8793" height="117.024" rx="11.8506" transform="matrix(1 0 -0.0742825 0.997237 32.8055 7.4939)" fill="#FCB712"/>
<rect width="88.8793" height="117.024" rx="11.8506" transform="matrix(1 0 -0.0742825 0.997237 32.8055 7.4939)" fill="black" fill-opacity="0.2"/>
<path d="M40.9232 17.8345C41.1055 15.387 43.243 13.4028 45.6973 13.4028H107.913C110.367 13.4028 112.209 15.387 112.027 17.8345L106.617 90.4523C106.229 95.6693 104.889 100.843 102.663 105.718L100.252 111C99.4674 112.719 97.7304 113.854 95.8865 113.854H32.0739C28.8697 113.854 27.118 110.403 28.9144 107.628C32.854 101.544 35.2008 94.6576 35.7228 87.6499L40.9232 17.8345Z" fill="white"/>
<path d="M74.9344 38.5157C78.2082 38.5157 81.0567 35.8715 81.2999 32.6068C81.5431 29.3421 79.0885 26.6979 75.8147 26.6979C72.541 26.6979 69.6925 29.3421 69.4493 32.6068C69.2061 35.8715 71.6607 38.5157 74.9344 38.5157ZM74.7144 41.4702C70.7592 41.4702 62.7163 43.4497 62.4236 47.3791L62.3136 48.8563C62.2531 49.6688 62.8702 50.3335 63.6849 50.3335H84.4234C85.2381 50.3335 85.9542 49.6688 86.0148 48.8563L86.1248 47.3791C86.4175 43.4497 78.6695 41.4702 74.7144 41.4702Z" fill="url(#paint1_linear_107_2244)"/>
<rect width="56.2902" height="5.92529" rx="2.96264" transform="matrix(1 0 -0.0742825 0.997237 45.3589 57.7197)" fill="#D7DDEB"/>
<rect width="35.5517" height="5.92529" rx="2.96264" transform="matrix(1 0 -0.0742825 0.997237 55.0679 66.5831)" fill="#D7DDEB"/>
<rect width="35.5517" height="5.92529" rx="2.96264" transform="matrix(1 0 -0.0742825 0.997237 63.8966 87.2643)" fill="#D7DDEB"/>
<rect x="2.05693" y="2.21584" width="13.3319" height="13.3319" rx="3.70331" transform="matrix(1 0 -0.0742825 0.997237 42.2815 81.3616)" stroke="#D7DDEB" stroke-width="4.44397"/>
<rect width="28.1451" height="13.3319" rx="2.69101" transform="matrix(1 0 -0.0742825 0.997237 62.542 6.01672)" fill="url(#paint2_linear_107_2244)"/>
<rect width="16.2945" height="7.40661" rx="3.70331" transform="matrix(1 0 -0.0742825 0.997237 68.6874 3.06226)" fill="#4790FF"/>
<rect width="88.8793" height="117.024" rx="11.8506" transform="matrix(1 0 -0.0742825 0.997237 29.7079 4.53101)" fill="url(#paint3_linear_107_2244)"/>
<path d="M37.8256 14.8716C38.0079 12.4241 40.1453 10.4399 42.5996 10.4399H104.815C107.269 10.4399 109.111 12.4241 108.929 14.8716L103.52 87.4894C103.131 92.7064 101.791 97.8797 99.5657 102.755L97.1542 108.038C96.3698 109.756 94.6328 110.892 92.7888 110.892H28.9762C25.772 110.892 24.0204 107.44 25.8168 104.665C29.7564 98.581 32.1031 91.6947 32.6251 84.687L37.8256 14.8716Z" fill="white"/>
<path d="M71.8368 35.5528C75.1105 35.5528 77.959 32.9086 78.2022 29.6439C78.4454 26.3792 75.9908 23.735 72.7171 23.735C69.4434 23.735 66.5948 26.3792 66.3516 29.6439C66.1085 32.9086 68.5631 35.5528 71.8368 35.5528ZM71.6167 38.5073C67.6616 38.5073 59.6187 40.4868 59.326 44.4162L59.216 45.8934C59.1554 46.7059 59.7725 47.3707 60.5872 47.3707H81.3257C82.1405 47.3707 82.8566 46.7059 82.9171 45.8934L83.0271 44.4162C83.3198 40.4868 75.5718 38.5073 71.6167 38.5073Z" fill="url(#paint4_linear_107_2244)"/>
<rect width="56.2902" height="5.92529" rx="2.96264" transform="matrix(1 0 -0.0742825 0.997237 42.2612 54.7568)" fill="#D7DDEB"/>
<rect width="35.5517" height="5.92529" rx="2.96264" transform="matrix(1 0 -0.0742825 0.997237 51.9702 63.6202)" fill="#D7DDEB"/>
<rect width="35.5517" height="5.92529" rx="2.96264" transform="matrix(1 0 -0.0742825 0.997237 60.799 84.3014)" fill="#D7DDEB"/>
<rect x="2.05693" y="2.21584" width="13.3319" height="13.3319" rx="3.70331" transform="matrix(1 0 -0.0742825 0.997237 39.1839 78.3987)" stroke="#D7DDEB" stroke-width="4.44397"/>
<rect width="28.1451" height="13.3319" rx="2.69101" transform="matrix(1 0 -0.0742825 0.997237 59.4444 3.05383)" fill="url(#paint5_linear_107_2244)"/>
<rect width="16.2945" height="7.40661" rx="3.70331" transform="matrix(1 0 -0.0742825 0.997237 65.5897 0.0993652)" fill="#4790FF"/>
<rect x="85.9999" y="98.0994" width="35.5517" height="35.5517" rx="17.7759" fill="url(#paint6_linear_107_2244)"/>
<rect opacity="0.32" x="89.3016" y="101.401" width="28.9483" height="28.9483" rx="14.4741" stroke="url(#paint7_linear_107_2244)"/>
<path d="M99.2642 122.057L94.0875 116.88C93.5251 116.318 93.5251 115.409 94.0875 114.847C94.6499 114.285 95.5583 114.285 96.1207 114.847L100.288 119L110.209 109.079C110.771 108.517 111.68 108.517 112.242 109.079C112.804 109.641 112.804 110.55 112.242 111.112L101.297 122.057C100.749 122.619 99.8265 122.619 99.2642 122.057Z" fill="white"/>
<circle cx="129" cy="10.0994" r="6" fill="url(#paint8_linear_107_2244)"/>
<circle cx="10.5" cy="36.5994" r="10.5" fill="#FCB712"/>
<defs>
<linearGradient id="paint0_linear_107_2244" x1="73.1017" y1="2.07605" x2="73.1017" y2="126.076" gradientUnits="userSpaceOnUse">
<stop stop-color="#E4E9F3"/>
<stop offset="1" stop-color="#E4E9F3" stop-opacity="0"/>
</linearGradient>
<linearGradient id="paint1_linear_107_2244" x1="75.8147" y1="26.6979" x2="75.8147" y2="50.3335" gradientUnits="userSpaceOnUse">
<stop stop-color="#002270"/>
<stop offset="1" stop-color="#0768FD"/>
</linearGradient>
<linearGradient id="paint2_linear_107_2244" x1="14.0726" y1="0" x2="14.0726" y2="13.3319" gradientUnits="userSpaceOnUse">
<stop stop-color="#002270"/>
<stop offset="1" stop-color="#0768FD"/>
</linearGradient>
<linearGradient id="paint3_linear_107_2244" x1="44.4397" y1="0" x2="44.4397" y2="117.024" gradientUnits="userSpaceOnUse">
<stop stop-color="#FCB712"/>
<stop offset="1" stop-color="#FF9141"/>
</linearGradient>
<linearGradient id="paint4_linear_107_2244" x1="72.7171" y1="23.735" x2="72.7171" y2="47.3707" gradientUnits="userSpaceOnUse">
<stop stop-color="#002270"/>
<stop offset="1" stop-color="#0768FD"/>
</linearGradient>
<linearGradient id="paint5_linear_107_2244" x1="14.0726" y1="0" x2="14.0726" y2="13.3319" gradientUnits="userSpaceOnUse">
<stop stop-color="#002270"/>
<stop offset="1" stop-color="#0768FD"/>
</linearGradient>
<linearGradient id="paint6_linear_107_2244" x1="103.776" y1="98.0994" x2="103.776" y2="133.651" gradientUnits="userSpaceOnUse">
<stop stop-color="#002270"/>
<stop offset="1" stop-color="#0768FD"/>
</linearGradient>
<linearGradient id="paint7_linear_107_2244" x1="103.776" y1="100.901" x2="103.776" y2="130.849" gradientUnits="userSpaceOnUse">
<stop stop-color="white"/>
<stop offset="1" stop-color="white" stop-opacity="0"/>
</linearGradient>
<linearGradient id="paint8_linear_107_2244" x1="129" y1="4.09937" x2="129" y2="16.0994" gradientUnits="userSpaceOnUse">
<stop stop-color="#002270"/>
<stop offset="1" stop-color="#0768FD"/>
</linearGradient>
</defs>
</svg>
