<svg width="12" height="13" viewBox="0 0 12 13" fill="none" xmlns="http://www.w3.org/2000/svg">
<path d="M8 3.5V6.5C8 7.05 8.45 7.5 9 7.5H9.5V11C9.5 11.275 9.725 11.5 10 11.5C10.275 11.5 10.5 11.275 10.5 11V2.065C10.5 1.74 10.195 1.5 9.88 1.575C8.8 1.84 8 2.755 8 3.5ZM5.5 5H4.5V2C4.5 1.725 4.275 1.5 4 1.5C3.725 1.5 3.5 1.725 3.5 2V5H2.5V2C2.5 1.725 2.275 1.5 2 1.5C1.725 1.5 1.5 1.725 1.5 2V5C1.5 6.105 2.395 7 3.5 7V11C3.5 11.275 3.725 11.5 4 11.5C4.275 11.5 4.5 11.275 4.5 11V7C5.605 7 6.5 6.105 6.5 5V2C6.5 1.725 6.275 1.5 6 1.5C5.725 1.5 5.5 1.725 5.5 2V5Z" fill="#FCB712"/>
</svg>
