<svg width="16" height="17" viewBox="0 0 16 17" fill="none" xmlns="http://www.w3.org/2000/svg">
<path d="M8.38055 1.94931L12.8055 3.43395C13.3008 3.59934 13.6357 4.05434 13.6384 4.56426L13.6666 8.99136C13.6753 10.3335 13.186 11.6351 12.29 12.6549C11.878 13.123 11.3498 13.525 10.6752 13.8846L8.29665 15.1561C8.22215 15.1953 8.14027 15.2156 8.05772 15.2163C7.97517 15.2169 7.89261 15.1973 7.81879 15.1587L5.41805 13.9166C4.73615 13.5629 4.20325 13.1668 3.78714 12.7052C2.87637 11.6959 2.37032 10.4002 2.3616 9.05608L2.33339 4.63224C2.33072 4.12168 2.65959 3.66341 3.15222 3.49147L7.56039 1.95389C7.82214 1.86106 8.1141 1.8591 8.38055 1.94931ZM10.4966 6.69537C10.2986 6.50513 9.97978 6.50644 9.78448 6.69929L7.53878 8.91285L6.61929 8.02899C6.4213 7.83876 6.10317 7.84072 5.90719 8.03357C5.71189 8.22642 5.7139 8.53629 5.91189 8.72653L7.18911 9.95555C7.28844 10.051 7.4173 10.0981 7.54616 10.0968C7.67502 10.0961 7.80322 10.0477 7.9012 9.95098L10.5006 7.38833C10.6959 7.19548 10.6939 6.88561 10.4966 6.69537Z" fill="#0A0434"/>
</svg>
