<svg width="12" height="12" viewBox="0 0 12 12" fill="none" xmlns="http://www.w3.org/2000/svg">
<path d="M8 3V6C8 6.55 8.45 7 9 7H9.5V10.5C9.5 10.775 9.725 11 10 11C10.275 11 10.5 10.775 10.5 10.5V1.565C10.5 1.24 10.195 1 9.88 1.075C8.8 1.34 8 2.255 8 3ZM5.5 4.5H4.5V1.5C4.5 1.225 4.275 1 4 1C3.725 1 3.5 1.225 3.5 1.5V4.5H2.5V1.5C2.5 1.225 2.275 1 2 1C1.725 1 1.5 1.225 1.5 1.5V4.5C1.5 5.605 2.395 6.5 3.5 6.5V10.5C3.5 10.775 3.725 11 4 11C4.275 11 4.5 10.775 4.5 10.5V6.5C5.605 6.5 6.5 5.605 6.5 4.5V1.5C6.5 1.225 6.275 1 6 1C5.725 1 5.5 1.225 5.5 1.5V4.5Z" fill="#808080"/>
</svg>
