<svg width="16" height="16" viewBox="0 0 16 16" fill="none" xmlns="http://www.w3.org/2000/svg">
<path d="M13.8422 8.33905C14.1047 7.99218 14.25 7.56718 14.25 7.12499C14.25 6.42343 13.8578 5.75936 13.2266 5.38905C13.0641 5.29373 12.879 5.24356 12.6906 5.24374H8.94375L9.0375 3.32342C9.05938 2.85936 8.89531 2.41874 8.57656 2.0828C8.42013 1.91722 8.23141 1.78548 8.02206 1.69571C7.8127 1.60595 7.58716 1.56008 7.35938 1.56092C6.54688 1.56092 5.82812 2.1078 5.6125 2.89061L4.27031 7.74999H4.26562V14.4375H11.6453C11.7891 14.4375 11.9297 14.4094 12.0594 14.3531C12.8031 14.0359 13.2828 13.3094 13.2828 12.5031C13.2828 12.3062 13.2547 12.1125 13.1984 11.925C13.4609 11.5781 13.6062 11.1531 13.6062 10.7109C13.6062 10.5141 13.5781 10.3203 13.5219 10.1328C13.7844 9.78592 13.9297 9.36093 13.9297 8.91874C13.9266 8.72186 13.8984 8.52655 13.8422 8.33905ZM1.75 8.24999V13.9375C1.75 14.2141 1.97344 14.4375 2.25 14.4375H3.26562V7.74999H2.25C1.97344 7.74999 1.75 7.97343 1.75 8.24999Z" fill="#BFBFBF"/>
</svg>
